<?xml version="1.0" encoding="UTF-8"?>
<svg width="23px" height="23px" viewBox="0 0 23 23" version="1.1" xmlns="http://www.w3.org/2000/svg" xmlns:xlink="http://www.w3.org/1999/xlink">
    <g id="画板备份-53" stroke="none" stroke-width="1" fill-rule="evenodd">
        <g id="编组-25" transform="translate(2.000000, 6.000000)" fill-rule="nonzero">
            <path d="M9.26171875,5.6875 L3.73046875,5.6875 L3.73046875,8.2421875 C3.73046875,9.075525 3.75130187,9.62109246 3.79296875,9.87890625 C3.83463563,10.13672 3.94010332,10.3281244 4.109375,10.453125 C4.27864668,10.5781256 4.60025805,10.640625 5.07421875,10.640625 L5.34765625,10.640625 L5.34765625,11 L0.58203125,11 L0.58203125,10.640625 L0.85546875,10.640625 C1.30859602,10.640625 1.62239496,10.5833339 1.796875,10.46875 C1.97135504,10.3541661 2.08333309,10.1757825 2.1328125,9.93359375 C2.18229191,9.69140504 2.20703125,9.12760859 2.20703125,8.2421875 L2.20703125,3.046875 C2.20703125,2.20312078 2.18229191,1.65885539 2.1328125,1.4140625 C2.08333309,1.16926961 1.97916746,1.00000047 1.8203125,0.90625 C1.66145754,0.812499531 1.31380477,0.765625 0.77734375,0.765625 L0.58203125,0.765625 L0.58203125,0.40625 L5.34765625,0.40625 L5.34765625,0.765625 L5.15234375,0.765625 C4.63671617,0.765625 4.29817789,0.80859332 4.13671875,0.89453125 C3.97525961,0.98046918 3.86718777,1.14062383 3.8125,1.375 C3.75781223,1.60937617 3.73046875,2.16666227 3.73046875,3.046875 L3.73046875,5.1484375 L9.26171875,5.1484375 L9.26171875,3.046875 C9.26171875,2.20312078 9.23828148,1.65885539 9.19140625,1.4140625 C9.14453102,1.16926961 9.04166746,1.00000047 8.8828125,0.90625 C8.72395754,0.812499531 8.37630477,0.765625 7.83984375,0.765625 L7.55859375,0.765625 L7.55859375,0.40625 L12.3789062,0.40625 L12.3789062,0.765625 L12.2226562,0.765625 C11.7018203,0.765625 11.3606779,0.80859332 11.1992188,0.89453125 C11.0377596,0.98046918 10.9296878,1.14062383 10.875,1.375 C10.8203122,1.60937617 10.7929688,2.16666227 10.7929688,3.046875 L10.7929688,8.2421875 C10.7929688,9.075525 10.8124998,9.62109246 10.8515625,9.87890625 C10.8906252,10.13672 10.9960929,10.3281244 11.1679688,10.453125 C11.3398446,10.5781256 11.662758,10.640625 12.1367188,10.640625 L12.3789062,10.640625 L12.3789062,11 L7.55859375,11 L7.55859375,10.640625 L7.92578125,10.640625 C8.37370016,10.640625 8.68489496,10.5833339 8.859375,10.46875 C9.03385504,10.3541661 9.14453102,10.1757825 9.19140625,9.93359375 C9.23828148,9.69140504 9.26171875,9.12760859 9.26171875,8.2421875 L9.26171875,5.6875 Z M15.9879687,3.72 C16.7079687,3.72 17.2979687,3.89 17.7379687,4.24 C18.1679688,4.59 18.3879688,5.07 18.3879688,5.69 C18.3879688,6.47 17.9879687,6.99 17.1979688,7.25 C17.6179687,7.38 17.9479688,7.57 18.1679688,7.83 C18.4079688,8.1 18.5279688,8.45 18.5279688,8.87 C18.5279688,9.53 18.2979687,10.07 17.8379688,10.49 C17.3579688,10.92 16.7279688,11.14 15.9479688,11.14 C15.2079687,11.14 14.6079688,10.95 14.1579688,10.57 C13.6579688,10.15 13.3779688,9.53 13.3179688,8.73 L14.5079688,8.73 C14.5279688,9.19 14.6679688,9.55 14.9479688,9.8 C15.1979688,10.03 15.5279688,10.15 15.9379688,10.15 C16.3879688,10.15 16.7479687,10.02 17.0079688,9.77 C17.2379687,9.54 17.3579688,9.26 17.3579688,8.92 C17.3579688,8.51 17.2279688,8.21 16.9879687,8.02 C16.7479687,7.82 16.3979687,7.73 15.9379688,7.73 L15.4379688,7.73 L15.4379688,6.85 L15.9379688,6.85 C16.3579688,6.85 16.6779687,6.76 16.8979687,6.58 C17.1079688,6.4 17.2179688,6.13 17.2179688,5.78 C17.2179688,5.43 17.1179687,5.17 16.9279687,4.99 C16.7179688,4.81 16.4079688,4.72 15.9979688,4.72 C15.5779688,4.72 15.2579688,4.82 15.0279688,5.03 C14.7879688,5.24 14.6479687,5.56 14.6079688,5.99 L13.4579687,5.99 C13.5179687,5.27 13.7779688,4.71 14.2579688,4.31 C14.7079687,3.91 15.2879688,3.72 15.9879687,3.72 Z" id="H3"></path>
        </g>
    </g>
</svg>
