<?xml version="1.0" encoding="UTF-8"?>
<svg width="25px" height="25px" viewBox="0 0 25 25" version="1.1" xmlns="http://www.w3.org/2000/svg" xmlns:xlink="http://www.w3.org/1999/xlink">
    <!-- Generator: Sketch 61 (89581) - https://sketch.com -->
    <title>画板备份 14</title>
    <desc>Created with Sketch.</desc>
    <g id="画板备份-14" stroke="none" stroke-width="1" fill="none" fill-rule="evenodd">
        <g id="编组-16" transform="translate(1.000000, 1.000000)">
            <g id="编组复制-4" fill="#DEDFE1" fill-rule="nonzero">
                <path d="M0,0 L23,0 L23,23 L0,23 L0,0 Z M1,1 L1,22 L22,22 L22,1 L1,1 Z" id="矩形"></path>
            </g>
            <g id="编组-14" transform="translate(9.666667, 14.791667)" fill="#FFFFFF">
                <g id="编组-15">
                    <rect id="矩形" x="0.164699207" y="0.222222222" width="1" height="1.59722222" rx="0.5"></rect>
                    <rect id="矩形复制-38" x="2.2556083" y="0.222222222" width="1" height="1.59722222" rx="0.5"></rect>
                </g>
            </g>
            <g id="编组-3" transform="translate(5.000000, 4.000000)" fill="#5A6067">
                <rect id="矩形" x="0" y="8" width="1" height="6"></rect>
                <rect id="矩形备份-2" x="4" y="6" width="1" height="8"></rect>
                <rect id="矩形备份-3" x="8" y="8" width="1" height="6"></rect>
                <rect id="矩形备份-5" x="12" y="6" width="1" height="8"></rect>
                <polygon id="路径-3" fill-rule="nonzero" points="8.49378995 5.15895032 13.3221021 1.09226568 12.6778979 0.327412055 8.50621005 3.84104968 4.51872806 0.352002939 -0.306970307 4.10532389 0.306970307 4.89467611 4.48127194 1.64799706"></polygon>
            </g>
        </g>
    </g>
</svg>