<?xml version="1.0" encoding="UTF-8"?>
<svg width="26px" height="26px" viewBox="0 0 26 26" version="1.1" xmlns="http://www.w3.org/2000/svg" xmlns:xlink="http://www.w3.org/1999/xlink">
    <!-- Generator: Sketch 61 (89581) - https://sketch.com -->
    <title>画板备份 4</title>
    <desc>Created with Sketch.</desc>
    <g id="画板备份-4" stroke="none" stroke-width="1" fill="none" fill-rule="evenodd">
        <g id="编组-5" transform="translate(5.000000, 4.000000)">
            <path d="M10.5922094,1 L1,1 L1,17 L15,17 L15,5.42136957 L10.5922094,1 Z" id="形状结合" stroke="#5A6067" stroke-width="2" fill="#5A6067"></path>
            <polygon id="矩形" fill="#F7F7F7" points="11 1 15 5 11 5"></polygon>
        </g>
        <path d="M9.3484375,20 L8.8084375,20 L8.8084375,18.445 L7.3634375,18.445 L7.3634375,20 L6.8234375,20 L6.8234375,16.44 L7.3634375,16.44 L7.3634375,17.96 L8.8084375,17.96 L8.8084375,16.44 L9.3484375,16.44 L9.3484375,20 Z M12.4634375,16.925 L11.4834375,16.925 L11.4834375,20 L10.9434375,20 L10.9434375,16.925 L9.9634375,16.925 L9.9634375,16.44 L12.4634375,16.44 L12.4634375,16.925 Z M16.2184375,20 L15.6784375,20 L15.6784375,17.62 L14.8584375,19.355 L14.4584375,19.355 L13.6184375,17.62 L13.6184375,20 L13.0784375,20 L13.0784375,16.44 L13.6184375,16.44 L14.6584375,18.655 L15.6784375,16.44 L16.2184375,16.44 L16.2184375,20 Z M19.3984375,20 L17.1434375,20 L17.1434375,16.44 L17.6834375,16.44 L17.6834375,19.515 L19.3984375,19.515 L19.3984375,20 Z" id="HTML" fill="#FFFFFF" fill-rule="nonzero"></path>
    </g>
</svg>