<?xml version="1.0" standalone="no"?><!DOCTYPE svg PUBLIC "-//W3C//DTD SVG 1.1//EN" "http://www.w3.org/Graphics/SVG/1.1/DTD/svg11.dtd"><svg class="icon" width="200px" height="200.00px" viewBox="0 0 1024 1024" version="1.1" xmlns="http://www.w3.org/2000/svg"><path fill="#333333" d="M910.58 845.73L610.46 545.62c66.4-92.05 71.49-219.45 3.07-317.97-53.48-77.01-139.2-118.3-226.37-118.3-54.17 0-108.91 15.96-156.78 49.2C105.5 245.26 74.57 416.8 161.29 541.69c53.48 77.01 139.2 118.3 226.36 118.3 54.07 0 108.7-15.93 156.51-49.03l300.6 300.6 65.82-65.83zM387.65 566.89c-59.82 0-115.86-29.27-149.9-78.3-57.31-82.52-36.79-196.28 45.73-253.59 30.68-21.3 66.54-32.57 103.7-32.57 59.81 0 115.84 29.27 149.88 78.3 27.76 39.98 38.29 88.37 29.65 136.27-8.64 47.89-35.41 89.56-75.39 117.32-30.67 21.31-66.52 32.57-103.67 32.57z" /></svg>