<?xml version="1.0" encoding="UTF-8"?>
<svg width="26px" height="26px" viewBox="0 0 26 26" version="1.1" xmlns="http://www.w3.org/2000/svg" xmlns:xlink="http://www.w3.org/1999/xlink">
    <!-- Generator: Sketch 61 (89581) - https://sketch.com -->
    <title>画板备份 8</title>
    <desc>Created with Sketch.</desc>
    <g id="画板备份-8" stroke="none" stroke-width="1" fill="none" fill-rule="evenodd">
        <g id="编组-2" transform="translate(0.000000, 8.000000)" fill="#5A6067">
            <polygon id="矩形" points="0 6 26 6 26 7 0 7"></polygon>
            <path d="M10.6015625,10 L6.23339844,10 L6.23339844,9.37109375 C6.60254091,9.37109375 6.87141843,9.34488958 7.04003906,9.29248047 C7.2086597,9.24007135 7.29296875,9.1158864 7.29296875,8.91992188 C7.29296875,8.78320244 7.26562527,8.64420644 7.2109375,8.50292969 L6.7734375,7.40917969 L3.765625,7.40917969 L3.54003906,8.01074219 C3.41243426,8.34798346 3.34863281,8.59179612 3.34863281,8.7421875 C3.34863281,9.01562637 3.45458878,9.18880172 3.66650391,9.26171875 C3.87841903,9.33463578 4.12564963,9.37109375 4.40820312,9.37109375 L4.40820312,10 L1.21582031,10 L1.21582031,9.37109375 C1.47102992,9.37109375 1.68749911,9.32324267 1.86523438,9.22753906 C2.04296964,9.13183546 2.21272706,8.95068493 2.37451172,8.68408203 C2.53629638,8.41747914 2.71061104,8.04036702 2.89746094,7.55273438 L5.5703125,0.552734375 L6.21972656,0.552734375 L9.04296875,7.77148438 C9.2480479,8.28190359 9.39843702,8.62711499 9.49414062,8.80712891 C9.58984423,8.98714283 9.72200437,9.12613883 9.890625,9.22412109 C10.0592456,9.32210335 10.2962224,9.37109375 10.6015625,9.37109375 L10.6015625,10 Z M6.52734375,6.73925781 L5.24902344,3.50585938 L4.03222656,6.73925781 L6.52734375,6.73925781 Z M18.4970703,7.15625 C18.4970703,7.59375219 18.4173185,8.00276502 18.2578125,8.38330078 C18.0983065,8.76383654 17.8738621,9.09309757 17.5844727,9.37109375 C17.2950832,9.64908993 16.9646828,9.86100187 16.5932617,10.0068359 C16.2218406,10.15267 15.8287781,10.2255859 15.4140625,10.2255859 C14.9264299,10.2255859 14.5071632,10.1310231 14.15625,9.94189453 C13.8053368,9.75276598 13.5159517,9.51009263 13.2880859,9.21386719 C12.868813,9.63314012 12.5657561,9.97037633 12.3789062,10.2255859 L11.8457031,10.2255859 L11.8457031,2.65136719 C11.8457031,2.39160026 11.8149417,2.20133524 11.753418,2.08056641 C11.6918942,1.95979757 11.5893562,1.88232439 11.4458008,1.84814453 C11.3022454,1.81396467 11.0800796,1.79231775 10.7792969,1.78320312 L10.7792969,1.16796875 L13.609375,0.56640625 L13.609375,4.98925781 C13.841798,4.77050672 14.1118149,4.58024169 14.4194336,4.41845703 C14.7270523,4.25667237 15.1292293,4.17578125 15.6259766,4.17578125 C16.0908226,4.17578125 16.5043927,4.2600903 16.8666992,4.42871094 C17.2290057,4.59733157 17.5309233,4.82519388 17.7724609,5.11230469 C18.0139986,5.3994155 18.1951491,5.71842272 18.315918,6.06933594 C18.4366868,6.42024915 18.4970703,6.78255021 18.4970703,7.15625 Z M16.6035156,7.1015625 C16.6035156,6.53189819 16.5089528,6.0283225 16.3198242,5.59082031 C16.1306957,5.15331813 15.7581408,4.93457031 15.2021484,4.93457031 C15.0016266,4.93457031 14.8045257,4.97444622 14.6108398,5.05419922 C14.417154,5.13395222 14.2371428,5.24218682 14.0708008,5.37890625 C13.9044588,5.51562568 13.7506517,5.6751293 13.609375,5.85742188 L13.609375,8.63964844 C13.8828139,8.99511896 14.1551093,9.22184196 14.4262695,9.31982422 C14.6974297,9.41780648 14.9378245,9.46679688 15.1474609,9.46679688 C15.5302754,9.46679688 15.8310536,9.3403333 16.0498047,9.08740234 C16.2685558,8.83447139 16.415527,8.53255384 16.4907227,8.18164062 C16.5659183,7.83072741 16.6035156,7.47070497 16.6035156,7.1015625 Z M25.5654297,8.61230469 C25.0139946,9.6878309 24.1276103,10.2255859 22.90625,10.2255859 C22.3365857,10.2255859 21.7976913,10.1093762 21.2895508,9.87695312 C20.7814102,9.64453009 20.3735367,9.30729388 20.065918,8.86523438 C19.7582992,8.42317487 19.6044922,7.90592744 19.6044922,7.31347656 C19.6044922,6.90331826 19.6876619,6.5113951 19.8540039,6.13769531 C20.0203459,5.76399553 20.2607406,5.42675932 20.5751953,5.12597656 C20.88965,4.82519381 21.2622049,4.59163495 21.6928711,4.42529297 C22.1235373,4.25895099 22.5849585,4.17578125 23.0771484,4.17578125 C23.7060578,4.17578125 24.2597632,4.29996621 24.7382812,4.54833984 C25.2167993,4.79671348 25.4560547,5.13964625 25.4560547,5.57714844 C25.4560547,5.77767027 25.3808601,5.948567 25.2304688,6.08984375 C25.0800774,6.2311205 24.906902,6.30175781 24.7109375,6.30175781 C24.5240876,6.30175781 24.3805344,6.25846397 24.2802734,6.171875 C24.1800125,6.08528603 24.1139325,5.99641973 24.0820312,5.90527344 C24.05013,5.81412715 24.0045576,5.65234491 23.9453125,5.41992188 C23.8860674,5.19661347 23.7880866,5.03824917 23.6513672,4.94482422 C23.5146478,4.85139927 23.3232434,4.8046875 23.0771484,4.8046875 C22.6624328,4.8046875 22.2944352,4.95849456 21.9731445,5.26611328 C21.6518539,5.57373201 21.4912109,6.14908433 21.4912109,6.9921875 C21.4912109,7.44336163 21.5561517,7.85807103 21.6860352,8.23632812 C21.8159186,8.61458522 22.0209947,8.91422416 22.3012695,9.13525391 C22.5815444,9.35628366 22.9244771,9.46679688 23.3300781,9.46679688 C23.7812523,9.46679688 24.1253243,9.35514435 24.3623047,9.13183594 C24.599285,8.90852753 24.8089184,8.64648588 24.9912109,8.34570312 L25.5654297,8.61230469 Z" id="Abc" fill-rule="nonzero"></path>
        </g>
    </g>
</svg>