<?xml version="1.0" encoding="UTF-8"?>
<svg width="25px" height="25px" viewBox="0 0 25 25" version="1.1" xmlns="http://www.w3.org/2000/svg" xmlns:xlink="http://www.w3.org/1999/xlink">
    <!-- Generator: Sketch 61 (89581) - https://sketch.com -->
    <title>上传block</title>
    <desc>Created with Sketch.</desc>
    <g id="上传block" stroke="none" stroke-width="1" fill="none" fill-rule="evenodd">
        <g id="编组-2" transform="translate(1.000000, 1.000000)">
            <g id="编组-2复制-12">
                <g id="路径-2">
                    <g id="编组-3">
                        <path d="M0,0 L23,0 L23,23 L0,23 L0,0 Z M1,1 L1,22 L22,22 L22,1 L1,1 Z" id="矩形" fill="#DEDFE1" fill-rule="nonzero"></path>
                        <polygon id="路径" fill="#5A6067" fill-rule="nonzero" points="16.5 17.5 6.5 17.5 6.5 12 5.5 12 5.5 18.5 17.5 18.5 17.5 12 16.5 12"></polygon>
                        <polygon id="路径" fill="#5A6067" fill-rule="nonzero" transform="translate(11.500000, 8.975926) rotate(-45.000000) translate(-11.500000, -8.975926) " points="13.75 12.2259258 14.75 12.2259258 14.75 5.72592583 8.25 5.72592583 8.25 6.72592583 13.75 6.72592583"></polygon>
                        <rect id="矩形" fill="#5A6067" x="11" y="5" width="1" height="9"></rect>
                    </g>
                </g>
            </g>
            <g id="编组" transform="translate(5.500000, 4.000000)"></g>
        </g>
    </g>
</svg>