<?xml version="1.0" standalone="no"?><!DOCTYPE svg PUBLIC "-//W3C//DTD SVG 1.1//EN" "http://www.w3.org/Graphics/SVG/1.1/DTD/svg11.dtd"><svg class="icon" width="200px" height="200.00px" viewBox="0 0 1024 1024" version="1.1" xmlns="http://www.w3.org/2000/svg"><path fill="#333333" d="M280.3 181.3h708.8v93.09H280.3zM173.05 297.67H36.41c-0.83 0-1.5-0.67-1.5-1.5V159.53c0-0.83 0.67-1.5 1.5-1.5h136.64c0.83 0 1.5 0.67 1.5 1.5v136.64c0 0.83-0.68 1.5-1.5 1.5zM280.3 478.78h708.8v93.09H280.3zM173.05 595.14H36.41c-0.83 0-1.5-0.67-1.5-1.5V457.01c0-0.83 0.67-1.5 1.5-1.5h136.64c0.83 0 1.5 0.67 1.5 1.5v136.64c0 0.82-0.68 1.49-1.5 1.49zM280.3 776.26h708.8v93.09H280.3zM173.05 892.62H36.41c-0.83 0-1.5-0.67-1.5-1.5V754.48c0-0.83 0.67-1.5 1.5-1.5h136.64c0.83 0 1.5 0.67 1.5 1.5v136.64c0 0.83-0.68 1.5-1.5 1.5z" /></svg>