<?xml version="1.0" encoding="UTF-8"?>
<svg width="23px" height="23px" viewBox="0 0 23 23" version="1.1" xmlns="http://www.w3.org/2000/svg" xmlns:xlink="http://www.w3.org/1999/xlink">
    <!-- Generator: Sketch 61 (89581) - https://sketch.com -->
    <title>上传选中</title>
    <desc>Created with Sketch.</desc>
    <g id="上传选中" stroke="none" stroke-width="1" fill="none" fill-rule="evenodd">
        <g id="编组-2" transform="translate(3.000000, 5.000000)" fill="#3C55FF">
            <g id="编组" transform="translate(7.500000, 6.000000)">
                <rect id="矩形" x="0.5" y="0" width="1" height="7"></rect>
            </g>
            <path d="M13,11.3333333 L13,10.3333333 L13.2480074,10.3333333 L13.4584024,10.3032387 C14.9083851,10.0958349 16,8.8471156 16,7.36666667 C16,5.72822191 14.6717781,4.4 13.0333333,4.4 C12.8811477,4.4 12.7307534,4.41137643 12.5828677,4.43383973 L11.574063,4.58707351 L11.4412066,3.57538351 C11.2487511,2.10985213 9.99304127,1 8.5,1 C7.00695873,1 5.7512489,2.10985213 5.55879344,3.57538351 L5.42593701,4.58707351 L4.41713232,4.43383973 C4.26924662,4.41137643 4.11885232,4.4 3.96666667,4.4 C2.32822191,4.4 1,5.72822191 1,7.36666667 C1,8.8471156 2.09161487,10.0958349 3.54159758,10.3032387 L3.75199264,10.3333333 L4,10.3333333 L4,11.3333333 L3.4,11.293163 C1.47769999,11.0181995 0,9.36500075 0,7.36666667 C0,5.17593716 1.77593716,3.4 3.96666667,3.4 C4.17085043,3.4 4.37143094,3.41542739 4.56730614,3.44518012 C4.82263116,1.50090255 6.48603829,-1.52766688e-13 8.5,-1.52766688e-13 C10.5139617,-1.52766688e-13 12.1773688,1.50090255 12.4326939,3.44518012 C12.6285691,3.41542739 12.8291496,3.4 13.0333333,3.4 C15.2240628,3.4 17,5.17593716 17,7.36666667 C17,9.36500075 15.5223,11.0181995 13.6,11.293163 L13,11.3333333 Z" id="路径" fill-rule="nonzero"></path>
            <polygon id="路径" fill-rule="nonzero" transform="translate(8.501450, 8.656427) rotate(-45.000000) translate(-8.501450, -8.656427) " points="9.75145047 10.9064271 10.7514505 10.9064271 10.7514505 6.40642713 6.25145047 6.40642713 6.25145047 7.40642713 9.75145047 7.40642713"></polygon>
        </g>
    </g>
</svg>