<?xml version="1.0" encoding="UTF-8"?>
<svg width="26px" height="26px" viewBox="0 0 26 26" version="1.1" xmlns="http://www.w3.org/2000/svg" xmlns:xlink="http://www.w3.org/1999/xlink">
    <!-- Generator: Sketch 61 (89581) - https://sketch.com -->
    <title>画板备份 2</title>
    <desc>Created with Sketch.</desc>
    <g id="画板备份-2" stroke="none" stroke-width="1" fill="none" fill-rule="evenodd">
        <g id="编组-4" transform="translate(4.000000, 3.000000)" fill="#5A6067">
            <rect id="矩形" x="0" y="0" width="18" height="1"></rect>
            <path d="M9,2 C13.9705627,2 18,6.02943725 18,11 C18,15.9705627 13.9705627,20 9,20 C4.02943725,20 0,15.9705627 0,11 C0,6.02943725 4.02943725,2 9,2 Z M9.5,7 L8.5,7 L8.5,10.499 L5,10.5 L5,11.5 L8.5,11.499 L8.5,15 L9.5,15 L9.5,11.5 L13,11.5 L13,10.5 L9.5,10.5 L9.5,7 Z" id="形状结合"></path>
        </g>
    </g>
</svg>