<?xml version="1.0" encoding="UTF-8"?>
<svg width="18px" height="18px" viewBox="0 0 18 18" version="1.1" xmlns="http://www.w3.org/2000/svg" xmlns:xlink="http://www.w3.org/1999/xlink">
    <!-- Generator: Sketch 61 (89581) - https://sketch.com -->
    <title>画板备份 24</title>
    <desc>Created with Sketch.</desc>
    <g id="画板备份-24" stroke="none" stroke-width="1" fill="none" fill-rule="evenodd">
        <g id="编组-2备份-2" transform="translate(0.000000, 1.000000)" fill="#666666">
            <path d="M3.12990569,12.7374019 C4.54407109,14.507464 6.68245955,15.5592409 8.99238281,15.5592409 C13.1345184,15.5592409 16.4923828,12.2013766 16.4923828,8.05924095 C16.4923828,3.91710532 13.1345184,0.559240948 8.99238281,0.559240948 C4.85024719,0.559240948 1.49238281,3.91710532 1.49238281,8.05924095 L2.85601918,8.05924095 C2.85601918,4.67022089 5.60336276,1.92287731 8.99238281,1.92287731 C12.3814029,1.92287731 15.1287464,4.67022089 15.1287464,8.05924095 C15.1287464,11.448261 12.3814029,14.1956046 8.99238281,14.1956046 C7.10149493,14.1956046 5.35337311,13.3357822 4.19527981,11.8862367 L3.12990569,12.7374019 Z" id="路径" fill-rule="nonzero"></path>
            <polygon id="矩形" transform="translate(2.104187, 8.375910) rotate(-45.000000) translate(-2.104187, -8.375910) " points="1.41230641 7.23619166 3.24390514 9.06779039 0.964469409 9.51562739"></polygon>
            <polygon id="路径" fill-rule="nonzero" points="9.40904948 3.96833186 7.99238281 3.96833186 7.99238281 8.34165929 11.0331822 11.2686319 12.0349168 10.3043954 9.40904948 7.77682261"></polygon>
        </g>
    </g>
</svg>