<?xml version="1.0" encoding="UTF-8"?>
<svg width="19px" height="18px" viewBox="0 0 19 18" version="1.1" xmlns="http://www.w3.org/2000/svg" xmlns:xlink="http://www.w3.org/1999/xlink">
    <!-- Generator: Sketch 61 (89581) - https://sketch.com -->
    <title>编组 29</title>
    <desc>Created with Sketch.</desc>
    <g id="Page-1" stroke="none" stroke-width="1" fill="none" fill-rule="evenodd">
        <g id="画板备份-58" transform="translate(-2.000000, -2.000000)" fill="#3C55FF">
            <g id="编组-29" transform="translate(1.000000, 2.000000)">
                <g id="编组-6" transform="translate(0.646447, 0.000000)">
                    <polygon id="矩形备份-34" points="8.35355339 7 9.35355339 7 9.35355339 14 8.35355339 14"></polygon>
                    <polygon id="矩形备份-35" points="11.3535534 4 12.3535534 4 12.3535534 11 11.3535534 11"></polygon>
                    <polygon id="矩形备份-36" points="9.35355339 4 9.35355339 7 6.35355339 7"></polygon>
                    <polygon id="矩形备份-37" transform="translate(12.853553, 12.500000) scale(-1, -1) translate(-12.853553, -12.500000) " points="14.3535534 11 14.3535534 14 11.3535534 14"></polygon>
                    <path d="M3.9424427,14.5811875 C5.54656836,16.422386 7.86334187,17.5 10.3535534,17.5 C15.0479738,17.5 18.8535534,13.6944204 18.8535534,9 C18.8535534,4.30557963 15.0479738,0.5 10.3535534,0.5 C5.65913302,0.5 1.85355339,4.30557963 1.85355339,9 L2.85355339,9 C2.85355339,4.85786438 6.21141777,1.5 10.3535534,1.5 C14.495689,1.5 17.8535534,4.85786438 17.8535534,9 C17.8535534,13.1421356 14.495689,16.5 10.3535534,16.5 C8.15553784,16.5 6.11259012,15.5497522 4.69642266,13.9242901 L3.9424427,14.5811875 Z" id="路径" fill-rule="nonzero"></path>
                    <polygon id="矩形" transform="translate(2.353553, 9.500000) rotate(-45.000000) translate(-2.353553, -9.500000) " points="1.70710678 8.14644661 3.70710678 10.1464466 1 10.8535534"></polygon>
                </g>
            </g>
        </g>
    </g>
</svg>