<?xml version="1.0" encoding="UTF-8"?>
<svg width="19px" height="19px" viewBox="0 0 19 19" version="1.1" xmlns="http://www.w3.org/2000/svg" xmlns:xlink="http://www.w3.org/1999/xlink">
    <!-- Generator: Sketch 61 (89581) - https://sketch.com -->
    <title>编组 28</title>
    <desc>Created with Sketch.</desc>
    <g id="Page-1" stroke="none" stroke-width="1" fill="none" fill-rule="evenodd">
        <g id="画板备份-70" transform="translate(-2.000000, -2.000000)" fill="#3C55FF">
            <g id="编组-28" transform="translate(2.000000, 2.000000)">
                <g id="编组-27">
                    <polygon id="矩形" points="6 6 7 6 7 13 6 13"></polygon>
                    <polygon id="矩形备份-13" points="9 3 10 3 10 10 9 10"></polygon>
                    <polygon id="矩形" points="7 3 7 6 4 6"></polygon>
                    <polygon id="矩形备份-14" transform="translate(10.500000, 11.500000) scale(-1, -1) translate(-10.500000, -11.500000) " points="12 10 12 13 9 13"></polygon>
                    <path d="M0,0 L16,0 L16,16 L0,16 L0,0 Z M1,1 L1,15 L15,15 L15,1 L1,1 Z" id="矩形" fill-rule="nonzero"></path>
                    <polygon id="形状" fill-rule="nonzero" points="17.5 4.5 17.5 17.5 4.5 17.5 4.5 15.078125 3.5 15.078125 3.5 18.5 18.5 18.5 18.5 3.5 15.1098633 3.5 15.1098633 4.5"></polygon>
                </g>
            </g>
        </g>
    </g>
</svg>