<?xml version="1.0" encoding="UTF-8"?>
<svg width="16px" height="17px" viewBox="0 0 16 17" version="1.1" xmlns="http://www.w3.org/2000/svg" xmlns:xlink="http://www.w3.org/1999/xlink">
    <!-- Generator: Sketch 61 (89581) - https://sketch.com -->
    <title>编组 17</title>
    <desc>Created with Sketch.</desc>
    <g id="Page-1" stroke="none" stroke-width="1" fill="none" fill-rule="evenodd">
        <g id="画板备份-69" transform="translate(-3.000000, -3.000000)" fill="#3C55FF" fill-rule="nonzero">
            <g id="编组-17" transform="translate(0.000000, 1.000000)">
                <g id="编组-3">
                    <g id="编组-2" transform="translate(10.969113, 10.571234) rotate(-315.000000) translate(-10.969113, -10.571234) translate(6.469113, 0.571234)">
                        <path d="M5.41558442,11.3192 C3.25868159,11.3192 1.5,9.47241053 1.5,7.1824 L1.5,4.864 C1.5,3.00079512 2.92919418,1.5 4.67965368,1.5 C6.43011318,1.5 7.85930736,3.00079512 7.85930736,4.864 L7.85930736,7.1824 L8.85930736,7.1824 L8.85930736,4.864 C8.85930736,2.45914833 6.9936274,0.5 4.67965368,0.5 C2.36567996,0.5 0.5,2.45914833 0.5,4.864 L0.5,7.1824 C0.5,10.0140573 2.69516737,12.3192 5.41558442,12.3192 L5.41558442,11.3192 Z" id="路径"></path>
                        <path d="M5.41558442,18.2744 C3.25868159,18.2744 1.5,16.4276105 1.5,14.1376 L1.5,11.8192 C1.5,9.95599512 2.92919418,8.4552 4.67965368,8.4552 C6.43011318,8.4552 7.85930736,9.95599512 7.85930736,11.8192 L7.85930736,14.1376 L8.85930736,14.1376 L8.85930736,11.8192 C8.85930736,9.41434833 6.9936274,7.4552 4.67965368,7.4552 C2.36567996,7.4552 0.5,9.41434833 0.5,11.8192 L0.5,14.1376 C0.5,16.9692573 2.69516737,19.2744 5.41558442,19.2744 L5.41558442,18.2744 Z" id="路径" transform="translate(4.679654, 13.364800) rotate(-180.000000) translate(-4.679654, -13.364800) "></path>
                    </g>
                </g>
            </g>
        </g>
    </g>
</svg>