<?xml version="1.0" encoding="UTF-8"?>
<svg width="14px" height="14px" viewBox="0 0 14 14" version="1.1" xmlns="http://www.w3.org/2000/svg" xmlns:xlink="http://www.w3.org/1999/xlink">
    <!-- Generator: Sketch 61 (89581) - https://sketch.com -->
    <title>编组 33</title>
    <desc>Created with Sketch.</desc>
    <g id="Page-1" stroke="none" stroke-width="1" fill="none" fill-rule="evenodd">
        <g id="画板备份-55" transform="translate(-5.000000, -5.000000)" fill="#3C55FF">
            <g id="编组-33" transform="translate(5.000000, 5.000000)">
                <g id="编组-32">
                    <polygon id="矩形" transform="translate(7.000000, 0.500000) scale(-1, 1) translate(-7.000000, -0.500000) " points="0 0 14 0 14 1 0 1"></polygon>
                    <polygon id="矩形备份" transform="translate(4.000000, 4.500000) scale(-1, 1) translate(-4.000000, -4.500000) " points="0 4 8 4 8 5 0 5"></polygon>
                    <polygon id="矩形" transform="translate(10.000000, 7.000000) scale(-1, 1) rotate(-315.000000) translate(-10.000000, -7.000000) " points="7.6 4.6 12.4 9.4 7.6 9.4"></polygon>
                    <polygon id="矩形备份-2" transform="translate(7.000000, 13.500000) scale(-1, 1) translate(-7.000000, -13.500000) " points="0 13 14 13 14 14 0 14"></polygon>
                    <polygon id="矩形备份-3" transform="translate(4.000000, 9.500000) scale(-1, 1) translate(-4.000000, -9.500000) " points="0 9 8 9 8 10 0 10"></polygon>
                </g>
            </g>
        </g>
    </g>
</svg>