<?xml version="1.0" encoding="UTF-8"?>
<svg width="23px" height="23px" viewBox="0 0 23 23" version="1.1" xmlns="http://www.w3.org/2000/svg" xmlns:xlink="http://www.w3.org/1999/xlink">
  <g id="画板备份-54" stroke="none" stroke-width="1" fill-rule="evenodd">
    <g id="编组-35" transform="translate(4.000000, 3.000000)">
      <g id="编组-34">
        <polygon id="矩形复制-4" points="5 2 16 2 16 3 5 3"></polygon>
        <polygon id="1" fill-rule="nonzero" points="2 4 0.962025316 4 0.962025316 0.983146067 0 1.7247191 0 0.741573034 0.962025316 0 2 0"></polygon>
        <path d="M3,10 L0,10 L0,9.17548747 L1.68995633,7.61559889 C1.86026201,7.45961003 1.92576419,7.35933148 1.92576419,7.19220056 C1.92576419,6.97493036 1.78165939,6.82451253 1.50655022,6.82451253 C1.31004367,6.82451253 1.07423581,6.90250696 1.07423581,7.20891365 L0,7.20891365 C0,6.42896936 0.694323144,6 1.50655022,6 C2.37117904,6 3,6.45125348 3,7.19777159 C3,7.61559889 2.79694323,7.83844011 2.42358079,8.17270195 L1.31004367,9.17548747 L3,9.17548747 L3,10 Z" id="2" fill-rule="nonzero"></path>
        <path d="M3,15.7900552 C3,16.6132597 2.29113924,17 1.5,17 C0.753164557,17 0,16.6519337 0,15.7679558 L1.03797468,15.7679558 C1.03797468,16.0441989 1.24050633,16.1823204 1.5,16.1823204 C1.7721519,16.1823204 1.96202532,16.0441989 1.96202532,15.7624309 C1.96202532,15.5248619 1.75949367,15.3480663 1.48101266,15.3480663 L1.33544304,15.3480663 L1.33544304,14.5635359 L1.48101266,14.5635359 C1.79113924,14.5635359 1.91139241,14.3701657 1.91139241,14.1933702 C1.91139241,13.9447514 1.71518987,13.8176796 1.5,13.8176796 C1.28481013,13.8176796 1.08860759,13.9502762 1.08860759,14.1878453 L0.0506329114,14.1878453 C0.0506329114,13.4475138 0.696202532,13 1.5,13 C2.33544304,13 2.94936709,13.4861878 2.94936709,14.1657459 C2.94936709,14.5966851 2.70886076,14.8066298 2.48101266,14.9337017 C2.7278481,15.0828729 3,15.320442 3,15.7900552 Z" id="3" fill-rule="nonzero"></path>
        <polygon id="矩形复制-8" points="5 8 16 8 16 9 5 9"></polygon>
        <polygon id="矩形复制-9" points="5 14 16 14 16 15 5 15"></polygon>
      </g>
    </g>
  </g>
</svg>
