<?xml version="1.0" encoding="UTF-8"?>
<svg width="23px" height="23px" viewBox="0 0 23 23" version="1.1" xmlns="http://www.w3.org/2000/svg" xmlns:xlink="http://www.w3.org/1999/xlink">
  <g id="画板备份-48" stroke="none" stroke-width="1" fill="none" fill-rule="evenodd">
    <g id="编组-37" transform="translate(3.000000, 5.000000)" fill="#CCCCCC">
      <g id="编组-36">
        <polygon id="矩形复制-4" points="5 0 16 0 16 1 5 1"></polygon>
        <polygon id="矩形复制-8" points="5 6 16 6 16 7 5 7"></polygon>
        <polygon id="矩形复制-9" points="5 12 16 12 16 13 5 13"></polygon>
        <path d="M1,2 C1.55228475,2 2,1.55228475 2,1 C2,0.44771525 1.55228475,0 1,0 C0.44771525,0 0,0.44771525 0,1 C0,1.55228475 0.44771525,2 1,2 Z" id="椭圆形"></path>
        <path d="M1,8 C1.55228475,8 2,7.55228475 2,7 C2,6.44771525 1.55228475,6 1,6 C0.44771525,6 0,6.44771525 0,7 C0,7.55228475 0.44771525,8 1,8 Z" id="椭圆形复制-2"></path>
        <path d="M1,14 C1.55228475,14 2,13.5522847 2,13 C2,12.4477153 1.55228475,12 1,12 C0.44771525,12 0,12.4477153 0,13 C0,13.5522847 0.44771525,14 1,14 Z" id="椭圆形复制-3"></path>
      </g>
    </g>
  </g>
</svg>
