<?xml version="1.0" encoding="UTF-8"?>
<svg width="23px" height="23px" viewBox="0 0 23 23" version="1.1" xmlns="http://www.w3.org/2000/svg" xmlns:xlink="http://www.w3.org/1999/xlink">
  <g id="画板备份-72" stroke="none" stroke-width="1" fill-rule="evenodd">
    <g id="编组-38" transform="translate(3.000000, 4.000000)" fill-rule="nonzero">
      <path d="M2.85525946,3.74430046 L10.5546537,2.27569052 C11.0971576,2.17221138 11.6208303,2.5281113 11.7243095,3.07061523 C11.7479225,3.19440965 11.7479225,3.32155191 11.7243095,3.44534633 L10.2556995,11.1447405 C10.1522204,11.6872445 9.62854766,12.0431444 9.08604374,11.9396652 C8.88913072,11.9021054 8.70805137,11.8062306 8.5663025,11.6644818 L2.33551823,5.4336975 C1.94499394,5.0431732 1.94499394,4.41000822 2.33551823,4.01948393 C2.47726709,3.87773507 2.65834644,3.78186035 2.85525946,3.74430046 Z M9.27340929,10.957375 L10.7420192,3.25798078 L3.04262501,4.72659071 L9.27340929,10.957375 Z" id="矩形" transform="translate(6.892322, 7.107678) rotate(-315.000000) translate(-6.892322, -7.107678) "></path>
    </g>
  </g>
</svg>
