<?xml version="1.0" encoding="UTF-8"?>
<svg width="23px" height="23px" viewBox="0 0 23 23" version="1.1" xmlns="http://www.w3.org/2000/svg" xmlns:xlink="http://www.w3.org/1999/xlink">
  <g id="画板备份-50" stroke="none" stroke-width="1" fill-rule="evenodd">
    <g id="编组-40" transform="translate(6.000000, 6.000000)"  fill-rule="nonzero">
      <path d="M1.5,0 L9.5,0 C10.3284271,0 11,0.671572875 11,1.5 L11,9.5 C11,10.3284271 10.3284271,11 9.5,11 L1.5,11 C0.671572875,11 0,10.3284271 0,9.5 L0,1.5 C0,0.671572875 0.671572875,0 1.5,0 Z M1.5,1 C1.22385763,1 1,1.22385763 1,1.5 L1,9.5 C1,9.77614237 1.22385763,10 1.5,10 L9.5,10 C9.77614237,10 10,9.77614237 10,9.5 L10,1.5 C10,1.22385763 9.77614237,1 9.5,1 L1.5,1 Z" id="矩形备份-16"></path>
    </g>
  </g>
</svg>
