<?xml version="1.0" encoding="UTF-8"?>
<svg width="24px" height="24px" viewBox="0 0 23 23" version="1.1" xmlns="http://www.w3.org/2000/svg" xmlns:xlink="http://www.w3.org/1999/xlink">
  <g id="Page-1" stroke="none" stroke-width="1" fill-rule="evenodd">
    <g id="block属性icon" transform="translate(-148.000000, -27.000000)" fill-rule="nonzero">
      <g id="编组-8复制备份-10" transform="translate(148.000000, 27.000000)">
        <path d="M0,0 L23,0 L23,23 L0,23 L0,0 Z M1,1 L1,22 L22,22 L22,1 L1,1 Z" id="矩形" fill="#DEDFE1"></path>
        <path d="M8.75292969,13.7786458 L8.75292969,13.0559896 C8.98079541,12.9388015 9.15169214,12.7174495 9.265625,12.3919271 C9.37955786,12.0664046 9.43652344,11.6367214 9.43652344,11.1028646 L9.43652344,10.8880208 L8.50878906,10.8880208 L8.50878906,8.72005208 L10.6767578,8.72005208 L10.6767578,10.3411458 C10.6767578,11.3307341 10.5156266,12.1119763 10.1933594,12.6848958 C9.87109214,13.2578154 9.39095371,13.6223951 8.75292969,13.7786458 Z M12.3662109,13.7786458 L12.3662109,13.0559896 C12.5940767,12.9388015 12.7649734,12.7174495 12.8789062,12.3919271 C12.9928391,12.0664046 13.0498047,11.6367214 13.0498047,11.1028646 L13.0498047,10.8880208 L12.1220703,10.8880208 L12.1220703,8.72005208 L14.2900391,8.72005208 L14.2900391,10.3411458 C14.2900391,11.3307341 14.1289079,12.1119763 13.8066406,12.6848958 C13.4843734,13.2578154 13.004235,13.6223951 12.3662109,13.7786458 Z" id="”" fill="#5A6067"></path>
      </g>
    </g>
  </g>
</svg>
