<?xml version="1.0" encoding="UTF-8"?>
<svg width="24px" height="24px" viewBox="0 0 23 23" version="1.1" xmlns="http://www.w3.org/2000/svg" xmlns:xlink="http://www.w3.org/1999/xlink">
  <!-- Generator: Sketch 55.2 (78181) - https://sketchapp.com -->
  <title>编组 2</title>
  <desc>Created with Sketch.</desc>
  <g id="Page-1" stroke="none" stroke-width="1" fill="none" fill-rule="evenodd">
    <g id="block属性icon" transform="translate(-89.000000, -26.000000)" fill-rule="nonzero">
      <g id="编组-2" transform="translate(89.000000, 26.000000)">
        <g id="编组-8复制备份" fill="#DEDFE1">
          <path d="M0,0 L23,0 L23,23 L0,23 L0,0 Z M1,1 L1,22 L22,22 L22,1 L1,1 Z" id="矩形"></path>
        </g>
        <path d="M14.2617188,11.6875 L8.73046875,11.6875 L8.73046875,14.2421875 C8.73046875,15.075525 8.75130187,15.6210925 8.79296875,15.8789062 C8.83463563,16.13672 8.94010332,16.3281244 9.109375,16.453125 C9.27864668,16.5781256 9.60025805,16.640625 10.0742188,16.640625 L10.3476562,16.640625 L10.3476562,17 L5.58203125,17 L5.58203125,16.640625 L5.85546875,16.640625 C6.30859602,16.640625 6.62239496,16.5833339 6.796875,16.46875 C6.97135504,16.3541661 7.08333309,16.1757825 7.1328125,15.9335938 C7.18229191,15.691405 7.20703125,15.1276086 7.20703125,14.2421875 L7.20703125,9.046875 C7.20703125,8.20312078 7.18229191,7.65885539 7.1328125,7.4140625 C7.08333309,7.16926961 6.97916746,7.00000047 6.8203125,6.90625 C6.66145754,6.81249953 6.31380477,6.765625 5.77734375,6.765625 L5.58203125,6.765625 L5.58203125,6.40625 L10.3476562,6.40625 L10.3476562,6.765625 L10.1523438,6.765625 C9.63671617,6.765625 9.29817789,6.80859332 9.13671875,6.89453125 C8.97525961,6.98046918 8.86718777,7.14062383 8.8125,7.375 C8.75781223,7.60937617 8.73046875,8.16666227 8.73046875,9.046875 L8.73046875,11.1484375 L14.2617188,11.1484375 L14.2617188,9.046875 C14.2617188,8.20312078 14.2382815,7.65885539 14.1914062,7.4140625 C14.144531,7.16926961 14.0416675,7.00000047 13.8828125,6.90625 C13.7239575,6.81249953 13.3763048,6.765625 12.8398438,6.765625 L12.5585938,6.765625 L12.5585938,6.40625 L17.3789062,6.40625 L17.3789062,6.765625 L17.2226562,6.765625 C16.7018203,6.765625 16.3606779,6.80859332 16.1992188,6.89453125 C16.0377596,6.98046918 15.9296878,7.14062383 15.875,7.375 C15.8203122,7.60937617 15.7929688,8.16666227 15.7929688,9.046875 L15.7929688,14.2421875 C15.7929688,15.075525 15.8124998,15.6210925 15.8515625,15.8789062 C15.8906252,16.13672 15.9960929,16.3281244 16.1679688,16.453125 C16.3398446,16.5781256 16.662758,16.640625 17.1367188,16.640625 L17.3789062,16.640625 L17.3789062,17 L12.5585938,17 L12.5585938,16.640625 L12.9257812,16.640625 C13.3737002,16.640625 13.684895,16.5833339 13.859375,16.46875 C14.033855,16.3541661 14.144531,16.1757825 14.1914062,15.9335938 C14.2382815,15.691405 14.2617188,15.1276086 14.2617188,14.2421875 L14.2617188,11.6875 Z" id="H" fill="#5A6067"></path>
      </g>
    </g>
  </g>
</svg>
